#define glider_width 16
#define glider_height 16
static unsigned char glider_bits[] = {
   0x00, 0x00, 0x00, 0x00, 0x00, 0x00, 0x80, 0x01, 0x80, 0x01, 0x00, 0x00,
   0x00, 0x00, 0x00, 0x18, 0x00, 0x18, 0x00, 0x00, 0x00, 0x00, 0x98, 0x19,
   0x98, 0x19, 0x00, 0x00, 0x00, 0x00, 0x00, 0x00 };
